<svg width="24" height="25" viewBox="0 0 24 25" fill="none" xmlns="http://www.w3.org/2000/svg">
<path fill-rule="evenodd" clip-rule="evenodd" d="M3 6.90759C3 4.28238 3.02811 3.40759 6.5 3.40759C9.97189 3.40759 10 4.28238 10 6.90759C10 9.53281 10.0111 10.4076 6.5 10.4076C2.98893 10.4076 3 9.53281 3 6.90759Z" stroke="#3A3A3C" stroke-width="1.5" stroke-linecap="round" stroke-linejoin="round"/>
<path fill-rule="evenodd" clip-rule="evenodd" d="M14 6.90759C14 4.28238 14.0281 3.40759 17.5 3.40759C20.9719 3.40759 21 4.28238 21 6.90759C21 9.53281 21.0111 10.4076 17.5 10.4076C13.9889 10.4076 14 9.53281 14 6.90759Z" stroke="#3A3A3C" stroke-width="1.5" stroke-linecap="round" stroke-linejoin="round"/>
<path fill-rule="evenodd" clip-rule="evenodd" d="M3 17.9076C3 15.2824 3.02811 14.4076 6.5 14.4076C9.97189 14.4076 10 15.2824 10 17.9076C10 20.5328 10.0111 21.4076 6.5 21.4076C2.98893 21.4076 3 20.5328 3 17.9076Z" stroke="#3A3A3C" stroke-width="1.5" stroke-linecap="round" stroke-linejoin="round"/>
<path fill-rule="evenodd" clip-rule="evenodd" d="M14 17.9076C14 15.2824 14.0281 14.4076 17.5 14.4076C20.9719 14.4076 21 15.2824 21 17.9076C21 20.5328 21.0111 21.4076 17.5 21.4076C13.9889 21.4076 14 20.5328 14 17.9076Z" stroke="#3A3A3C" stroke-width="1.5" stroke-linecap="round" stroke-linejoin="round"/>
</svg>
