<svg width="24" height="25" viewBox="0 0 24 25" fill="none" xmlns="http://www.w3.org/2000/svg">
<path fill-rule="evenodd" clip-rule="evenodd" d="M19.0714 19.4775C16.0152 22.5339 11.4898 23.1943 7.78642 21.4816C7.23971 21.2615 6.79148 21.0836 6.36537 21.0836C5.17849 21.0906 3.70117 22.2415 2.93336 21.4746C2.16555 20.7067 3.31726 19.2282 3.31726 18.0341C3.31726 17.608 3.14642 17.1678 2.92632 16.62C1.21283 12.9172 1.87411 8.39028 4.93026 5.3348C8.8316 1.43202 15.17 1.43203 19.0714 5.33379C22.9797 9.2426 22.9727 15.5757 19.0714 19.4775Z" stroke="#3A3A3C" stroke-width="1.5" stroke-linecap="round" stroke-linejoin="round"/>
<path d="M15.9394 12.8206H15.9484" stroke="#3A3A3C" stroke-width="2" stroke-linecap="round" stroke-linejoin="round"/>
<path d="M11.9304 12.8206H11.9394" stroke="#3A3A3C" stroke-width="2" stroke-linecap="round" stroke-linejoin="round"/>
<path d="M7.9214 12.8206H7.9304" stroke="#3A3A3C" stroke-width="2" stroke-linecap="round" stroke-linejoin="round"/>
</svg>
