<svg width="24" height="25" viewBox="0 0 24 25" fill="none" xmlns="http://www.w3.org/2000/svg">
<path d="M9.15722 21.179V18.1123C9.1572 17.3322 9.79312 16.6984 10.581 16.6932H13.4671C14.2587 16.6932 14.9005 17.3285 14.9005 18.1123V18.1123V21.1885C14.9003 21.8508 15.4343 22.3921 16.103 22.4076H18.0271C19.9451 22.4076 21.5 20.8683 21.5 18.9694V18.9694V10.2454C21.4898 9.49842 21.1355 8.79694 20.538 8.34062L13.9577 3.09289C12.8049 2.17916 11.1662 2.17916 10.0134 3.09289L3.46203 8.35015C2.86226 8.80461 2.50739 9.50726 2.5 10.255V18.9694C2.5 20.8683 4.05488 22.4076 5.97291 22.4076H7.89696C8.58235 22.4076 9.13797 21.8575 9.13797 21.179V21.179" stroke="#3A3A3C" stroke-width="1.5" stroke-linecap="round" stroke-linejoin="round"/>
</svg>
