<svg width="24" height="25" viewBox="0 0 24 25" fill="none" xmlns="http://www.w3.org/2000/svg">
<path fill-rule="evenodd" clip-rule="evenodd" d="M21.21 8.69813V16.8491C21.21 19.8691 19.32 21.9991 16.3 21.9991H7.65C4.63 21.9991 2.75 19.8691 2.75 16.8491V8.69813C2.75 5.67813 4.64 3.54913 7.65 3.54913H16.3C19.32 3.54913 21.21 5.67813 21.21 8.69813Z" stroke="#3A3A3C" stroke-width="1.5" stroke-linecap="round" stroke-linejoin="round"/>
<path d="M5.28131 17.2298L6.80931 15.6168C7.34031 15.0538 8.22531 15.0268 8.78931 15.5568C8.80631 15.5738 9.72631 16.5088 9.72631 16.5088C10.2813 17.0738 11.1883 17.0828 11.7533 16.5288C11.7903 16.4928 14.0873 13.7068 14.0873 13.7068C14.6793 12.9878 15.7423 12.8848 16.4623 13.4778C16.5103 13.5178 18.6803 15.7448 18.6803 15.7448" stroke="#3A3A3C" stroke-width="1.5" stroke-linecap="round" stroke-linejoin="round"/>
<path fill-rule="evenodd" clip-rule="evenodd" d="M10.3126 9.93204C10.3126 10.901 9.52763 11.686 8.55863 11.686C7.58963 11.686 6.80463 10.901 6.80463 9.93204C6.80463 8.96304 7.58963 8.17804 8.55863 8.17804C9.52763 8.17904 10.3126 8.96304 10.3126 9.93204Z" stroke="#3A3A3C" stroke-width="1.5" stroke-linecap="round" stroke-linejoin="round"/>
</svg>
