<svg width="47" height="15" viewBox="0 0 47 15" fill="none" xmlns="http://www.w3.org/2000/svg">
<path d="M0.480469 10.32V5.424C0.480469 2.832 2.56847 0.719999 5.16047 0.719999H12.2645H23.0645C23.6165 0.719999 24.0725 1.176 24.0725 1.728C24.0725 2.28 23.6165 2.736 23.0645 2.736H12.2645H5.16047C3.69647 2.736 2.49647 3.936 2.49647 5.424V10.32C2.49647 11.784 3.69647 12.984 5.16047 12.984H12.2645H23.0645C23.6165 12.984 24.0725 13.44 24.0725 13.992C24.0725 14.568 23.6165 15 23.0645 15H12.2645H5.16047C2.56847 15 0.480469 12.912 0.480469 10.32ZM35.2943 12.984H42.9503C43.8623 12.984 44.6303 12.24 44.6303 11.304V1.728C44.6303 1.176 45.0863 0.719999 45.6383 0.719999C46.1903 0.719999 46.6463 1.176 46.6463 1.728V11.304C46.6463 13.344 44.9903 15 42.9503 15H35.2943H33.2783H28.9103C28.3343 15 27.9023 14.568 27.9023 13.992C27.9023 13.44 28.3343 12.984 28.9103 12.984H33.2783H35.2943Z" fill="url(#paint0_linear_397_2521)"/>
<defs>
<linearGradient id="paint0_linear_397_2521" x1="25.6711" y1="-2" x2="25.6711" y2="22" gradientUnits="userSpaceOnUse">
<stop stop-color="#C5091F"/>
<stop offset="1" stop-color="#870413"/>
</linearGradient>
</defs>
</svg>
