<svg width="40" height="14" viewBox="0 0 40 14" fill="none" xmlns="http://www.w3.org/2000/svg">
<path d="M2.93538 13.128C1.98604 13.128 1.29271 12.9387 0.855375 12.56C0.423375 12.1813 0.199375 11.552 0.183375 10.672C0.172708 9.93067 0.164708 9.22933 0.159375 8.568C0.154042 7.90133 0.151375 7.248 0.151375 6.608C0.151375 5.96267 0.154042 5.30667 0.159375 4.64C0.164708 3.97333 0.172708 3.26933 0.183375 2.528C0.199375 1.66933 0.426042 1.048 0.863375 0.664C1.30604 0.279999 1.99404 0.0879993 2.92738 0.0879993C3.86071 0.0879993 4.54604 0.285333 4.98338 0.679999C5.42604 1.06933 5.66338 1.688 5.69538 2.536C5.70604 2.78667 5.71138 3.03467 5.71138 3.28C5.71138 3.52 5.70871 3.76 5.70338 4C5.69804 4.23467 5.69004 4.48 5.67938 4.736H4.12738C4.13804 4.46933 4.14338 4.21333 4.14338 3.968C4.14871 3.72267 4.15138 3.47733 4.15138 3.232C4.15138 2.98667 4.14871 2.73333 4.14338 2.472C4.12738 2.06667 4.02871 1.78667 3.84738 1.632C3.66604 1.472 3.35938 1.392 2.92738 1.392C2.50604 1.392 2.20471 1.472 2.02338 1.632C1.84204 1.78667 1.74604 2.06667 1.73538 2.472C1.71938 3.24533 1.70604 3.968 1.69538 4.64C1.69004 5.312 1.68738 5.968 1.68738 6.608C1.68738 7.24267 1.69004 7.896 1.69538 8.568C1.70604 9.23467 1.71938 9.95733 1.73538 10.736C1.74604 11.1413 1.84204 11.424 2.02338 11.584C2.21004 11.744 2.51404 11.824 2.93538 11.824C3.38871 11.824 3.70871 11.744 3.89538 11.584C4.08738 11.424 4.19138 11.1413 4.20738 10.736C4.21804 10.496 4.22338 10.264 4.22338 10.04C4.22338 9.81067 4.22071 9.56267 4.21538 9.296C4.21004 9.024 4.20204 8.704 4.19138 8.336H5.74338C5.76471 8.784 5.77538 9.19733 5.77538 9.576C5.78071 9.94933 5.77538 10.3147 5.75938 10.672C5.72738 11.552 5.49004 12.1813 5.04738 12.56C4.61004 12.9387 3.90604 13.128 2.93538 13.128ZM9.8375 13.128C9.20283 13.128 8.6935 13.0453 8.3095 12.88C7.93083 12.7147 7.65083 12.448 7.4695 12.08C7.28817 11.712 7.1815 11.232 7.1495 10.64C7.13883 10.3413 7.12817 9.98667 7.1175 9.576C7.11217 9.16533 7.1095 8.73333 7.1095 8.28C7.1095 7.82133 7.11217 7.37333 7.1175 6.936C7.12817 6.49867 7.13883 6.10667 7.1495 5.76C7.18683 5.15733 7.2935 4.67467 7.4695 4.312C7.65083 3.944 7.93083 3.68 8.3095 3.52C8.6935 3.35467 9.20283 3.272 9.8375 3.272C10.4828 3.272 10.9948 3.35733 11.3735 3.528C11.7522 3.69333 12.0295 3.96 12.2055 4.328C12.3815 4.69067 12.4828 5.168 12.5095 5.76C12.5255 6.08533 12.5362 6.456 12.5415 6.872C12.5522 7.28267 12.5575 7.712 12.5575 8.16C12.5575 8.60267 12.5522 9.04 12.5415 9.472C12.5362 9.89867 12.5255 10.288 12.5095 10.64C12.4775 11.232 12.3735 11.712 12.1975 12.08C12.0215 12.448 11.7442 12.7147 11.3655 12.88C10.9868 13.0453 10.4775 13.128 9.8375 13.128ZM9.8375 11.936C10.2482 11.936 10.5335 11.8587 10.6935 11.704C10.8535 11.5493 10.9415 11.312 10.9575 10.992C10.9735 10.5067 10.9842 10.0347 10.9895 9.576C11.0002 9.11733 11.0055 8.66133 11.0055 8.208C11.0108 7.74933 11.0082 7.288 10.9975 6.824C10.9868 6.36 10.9735 5.88533 10.9575 5.4C10.9415 5.06933 10.8508 4.832 10.6855 4.688C10.5202 4.53867 10.2375 4.464 9.8375 4.464C9.4375 4.464 9.1495 4.54133 8.9735 4.696C8.80283 4.85067 8.71217 5.09333 8.7015 5.424C8.69083 5.824 8.68017 6.248 8.6695 6.696C8.65883 7.144 8.6535 7.608 8.6535 8.088C8.6535 8.56267 8.65617 9.04267 8.6615 9.528C8.67217 10.0133 8.68817 10.496 8.7095 10.976C8.7255 11.312 8.81617 11.5573 8.9815 11.712C9.15217 11.8613 9.4375 11.936 9.8375 11.936ZM14.0904 13V3.4H15.6504V4.32H15.9784C16.1704 3.97333 16.3944 3.712 16.6504 3.536C16.9064 3.36 17.2504 3.272 17.6824 3.272C18.3064 3.272 18.773 3.44533 19.0824 3.792C19.397 4.13333 19.5544 4.69067 19.5544 5.464V13H18.0024V5.336C17.997 5.016 17.9197 4.78667 17.7704 4.648C17.621 4.504 17.389 4.432 17.0744 4.432C16.781 4.432 16.4957 4.50933 16.2184 4.664C15.9464 4.81867 15.757 5.032 15.6504 5.304V13H14.0904ZM23.359 13.12C22.767 13.12 22.2843 13.0373 21.911 12.872C21.543 12.7067 21.2683 12.4427 21.087 12.08C20.911 11.7173 20.815 11.2427 20.799 10.656C20.7883 10.256 20.783 9.86933 20.783 9.496C20.783 9.12267 20.7883 8.73333 20.799 8.328H22.271C22.2657 8.59467 22.2603 8.86933 22.255 9.152C22.2497 9.42933 22.2497 9.70933 22.255 9.992C22.2603 10.2693 22.2657 10.5413 22.271 10.808C22.2817 11.1813 22.367 11.4427 22.527 11.592C22.6923 11.7413 22.9697 11.816 23.359 11.816C23.7857 11.816 24.079 11.7413 24.239 11.592C24.4043 11.4427 24.487 11.1813 24.487 10.808V0.2H26.039V10.656C26.039 11.5413 25.831 12.1733 25.415 12.552C25.0043 12.9307 24.319 13.12 23.359 13.12ZM30.2281 13.128C29.5935 13.128 29.0841 13.0453 28.7001 12.88C28.3215 12.7147 28.0415 12.448 27.8601 12.08C27.6788 11.712 27.5721 11.232 27.5401 10.64C27.5295 10.3413 27.5188 9.98667 27.5081 9.576C27.5028 9.16533 27.5001 8.73333 27.5001 8.28C27.5001 7.82133 27.5028 7.37333 27.5081 6.936C27.5188 6.49867 27.5295 6.10667 27.5401 5.76C27.5775 5.15733 27.6841 4.67467 27.8601 4.312C28.0415 3.944 28.3215 3.68 28.7001 3.52C29.0841 3.35467 29.5935 3.272 30.2281 3.272C30.8735 3.272 31.3855 3.35733 31.7641 3.528C32.1428 3.69333 32.4201 3.96 32.5961 4.328C32.7721 4.69067 32.8735 5.168 32.9001 5.76C32.9161 6.08533 32.9268 6.456 32.9321 6.872C32.9428 7.28267 32.9481 7.712 32.9481 8.16C32.9481 8.60267 32.9428 9.04 32.9321 9.472C32.9268 9.89867 32.9161 10.288 32.9001 10.64C32.8681 11.232 32.7641 11.712 32.5881 12.08C32.4121 12.448 32.1348 12.7147 31.7561 12.88C31.3775 13.0453 30.8681 13.128 30.2281 13.128ZM30.2281 11.936C30.6388 11.936 30.9241 11.8587 31.0841 11.704C31.2441 11.5493 31.3321 11.312 31.3481 10.992C31.3641 10.5067 31.3748 10.0347 31.3801 9.576C31.3908 9.11733 31.3961 8.66133 31.3961 8.208C31.4015 7.74933 31.3988 7.288 31.3881 6.824C31.3775 6.36 31.3641 5.88533 31.3481 5.4C31.3321 5.06933 31.2415 4.832 31.0761 4.688C30.9108 4.53867 30.6281 4.464 30.2281 4.464C29.8281 4.464 29.5401 4.54133 29.3641 4.696C29.1935 4.85067 29.1028 5.09333 29.0921 5.424C29.0815 5.824 29.0708 6.248 29.0601 6.696C29.0495 7.144 29.0441 7.608 29.0441 8.088C29.0441 8.56267 29.0468 9.04267 29.0521 9.528C29.0628 10.0133 29.0788 10.496 29.1001 10.976C29.1161 11.312 29.2068 11.5573 29.3721 11.712C29.5428 11.8613 29.8281 11.936 30.2281 11.936ZM37.977 13.128C37.5183 13.128 37.169 13.04 36.929 12.864C36.689 12.688 36.4703 12.424 36.273 12.072H36.065V13H34.481V0.2H36.065V4.32H36.369C36.561 3.97333 36.7797 3.712 37.025 3.536C37.2703 3.36 37.6197 3.272 38.073 3.272C38.6703 3.272 39.121 3.44 39.425 3.776C39.7343 4.112 39.9023 4.67467 39.929 5.464C39.9397 5.82667 39.9477 6.24267 39.953 6.712C39.9637 7.18133 39.969 7.66933 39.969 8.176C39.969 8.67733 39.9637 9.168 39.953 9.648C39.9477 10.1227 39.9397 10.552 39.929 10.936C39.897 11.7147 39.7157 12.2747 39.385 12.616C39.0543 12.9573 38.585 13.128 37.977 13.128ZM37.457 11.96C37.7717 11.96 37.9957 11.888 38.129 11.744C38.2677 11.6 38.3397 11.3707 38.345 11.056C38.3663 10.5973 38.3823 10.1387 38.393 9.68C38.4037 9.22133 38.409 8.75733 38.409 8.288C38.409 7.81867 38.4037 7.34133 38.393 6.856C38.3877 6.37067 38.377 5.872 38.361 5.36C38.345 5.04533 38.2703 4.81333 38.137 4.664C38.0037 4.50933 37.777 4.432 37.457 4.432C37.137 4.432 36.8517 4.50667 36.601 4.656C36.3557 4.80533 36.177 5.02133 36.065 5.304V11.088C36.1823 11.3867 36.369 11.608 36.625 11.752C36.881 11.8907 37.1583 11.96 37.457 11.96Z" fill="url(#paint0_linear_397_1507)"/>
<defs>
<linearGradient id="paint0_linear_397_1507" x1="20.1409" y1="-5" x2="20.1409" y2="19" gradientUnits="userSpaceOnUse">
<stop stop-color="#C5091F"/>
<stop offset="1" stop-color="#870413"/>
</linearGradient>
</defs>
</svg>
